<?xml version="1.0" encoding="utf-8"?>
<!-- Generator: Adobe Illustrator 19.2.1, SVG Export Plug-In . SVG Version: 6.00 Build 0)  -->
<svg version="1.1" id="Layer_1" xmlns="http://www.w3.org/2000/svg" xmlns:xlink="http://www.w3.org/1999/xlink" x="0px" y="0px"
	 viewBox="0 0 149.9 33" style="enable-background:new 0 0 149.9 33;" xml:space="preserve">
<style type="text/css">
	.st0{fill:#F7941E;}
</style>
<g>
	<g>
		<path d="M51,9.7c0.3,0,0.6-0.2,0.8-0.5c0.2-0.3,0.3-0.7,0.3-1.2c0-0.4-0.1-0.8-0.3-1.1c-0.2-0.3-0.5-0.5-0.8-0.5h-9.6
			c-0.4,0-0.8,0.1-1.1,0.3C40,7,39.8,7.3,39.8,7.7V26c0,0.4,0.2,0.6,0.5,0.8c0.3,0.2,0.7,0.3,1.1,0.3H51c0.4,0,0.6-0.2,0.8-0.5
			c0.2-0.3,0.3-0.7,0.3-1.1c0-0.5-0.1-0.8-0.3-1.2c-0.2-0.3-0.5-0.5-0.8-0.5h-7.7v-5.7h4.1c0.4,0,0.6-0.1,0.8-0.4
			c0.2-0.3,0.3-0.6,0.3-1c0-0.4-0.1-0.7-0.3-1c-0.2-0.3-0.5-0.4-0.8-0.4h-4.1V9.7H51z M60.1,9.7c1,0,1.7,0.3,2.1,0.8
			c0.4,0.5,0.6,1.2,0.7,2c0,0.8,0.6,1.2,1.8,1.2c0.6,0,1.1-0.1,1.3-0.4c0.3-0.2,0.4-0.7,0.4-1.4c0-1.7-0.6-3-1.8-4
			c-1.2-1-2.8-1.5-4.7-1.5c-1.9,0-3.4,0.5-4.5,1.6c-1.1,1-1.7,2.7-1.7,4.9v7.9c0,2.2,0.6,3.9,1.7,4.9c1.1,1,2.7,1.6,4.6,1.6
			c1.9,0,3.5-0.5,4.6-1.6c1.2-1,1.7-2.7,1.7-4.9v-3.4c0-0.3-0.1-0.6-0.3-0.8c-0.2-0.2-0.5-0.4-0.8-0.4h-4.6c-0.3,0-0.6,0.1-0.8,0.4
			c-0.2,0.3-0.3,0.6-0.3,1c0,0.4,0.1,0.7,0.3,1c0.2,0.3,0.5,0.4,0.8,0.4h2.2v1.7c0,1.1-0.2,1.9-0.7,2.4c-0.5,0.5-1.2,0.8-2.1,0.8
			c-1.9,0-2.8-1.1-2.8-3.3V13C57.3,10.8,58.2,9.7,60.1,9.7z M77.3,7.6c-0.1-0.4-0.4-0.7-0.8-0.9C76,6.4,75.5,6.3,75,6.3
			c-0.5,0-1,0.1-1.4,0.3c-0.4,0.2-0.7,0.5-0.8,0.8l-5.2,17.8c0,0.2-0.1,0.3-0.1,0.3c0,0.5,0.3,0.9,0.8,1.2c0.5,0.3,1.1,0.5,1.7,0.5
			c0.8,0,1.2-0.2,1.3-0.7l1-3.8h5.8l1,3.8c0.1,0.5,0.5,0.7,1.2,0.7c0.5,0,1-0.2,1.5-0.5c0.5-0.3,0.7-0.7,0.7-1.1c0,0,0-0.1-0.1-0.3
			L77.3,7.6z M73.1,19.8l2.3-8.7l2.4,8.7H73.1z M99.7,16.4c-0.6-0.5-1.3-0.9-2.1-1.3c-0.8-0.4-1.4-0.7-2.1-1c-0.6-0.3-1.2-0.6-1.6-1
			c-0.4-0.4-0.6-0.9-0.6-1.4c0-0.7,0.3-1.2,0.8-1.6c0.5-0.4,1.3-0.6,2.3-0.6c0.9,0,1.7,0.2,2.4,0.5c0.7,0.4,1.2,0.5,1.3,0.5
			c0.4,0,0.8-0.2,1-0.7c0.3-0.4,0.4-0.9,0.4-1.3c0-0.4-0.2-0.8-0.6-1.2c-0.4-0.3-0.8-0.6-1.4-0.7c-0.6-0.2-1.1-0.3-1.7-0.3
			c-0.5-0.1-1-0.1-1.5-0.1c-0.8,0-1.6,0.1-2.4,0.3c-0.7,0.2-1.4,0.5-2.1,0.9c-0.6,0.4-1.2,1-1.6,1.8c-0.4,0.8-0.6,1.7-0.6,2.7
			c0,0.9,0.2,1.7,0.5,2.4c0.3,0.7,0.7,1.3,1.2,1.7c0.5,0.4,1.1,0.8,1.7,1.1c0.6,0.3,1.2,0.6,1.9,0.9c0.6,0.3,1.2,0.6,1.7,0.8
			c0.5,0.3,0.9,0.7,1.2,1.1c0.3,0.4,0.5,0.9,0.5,1.5c0,0.8-0.3,1.4-0.9,1.8c-0.6,0.4-1.3,0.6-2.2,0.6c-0.6,0-1.2-0.1-1.7-0.4
			c-0.5-0.2-0.9-0.5-1.2-0.8c-0.3-0.3-0.6-0.5-0.9-0.8c-0.3-0.2-0.6-0.4-0.8-0.4c-0.4,0-0.8,0.2-1.1,0.7c-0.3,0.4-0.5,0.9-0.5,1.3
			c0,0.9,0.6,1.7,1.8,2.4c1.2,0.7,2.7,1.1,4.4,1.1c1.9,0,3.5-0.5,4.7-1.6c1.2-1,1.8-2.5,1.8-4.5c0-1.1-0.2-2.2-0.7-3
			C100.9,17.5,100.4,16.8,99.7,16.4z M116.5,9.2c0.2-0.3,0.3-0.7,0.3-1.1c0-0.4-0.1-0.8-0.3-1.1c-0.2-0.3-0.5-0.5-0.8-0.5h-11.5
			c-0.4,0-0.6,0.2-0.8,0.5c-0.2,0.3-0.3,0.7-0.3,1.1c0,0.5,0.1,0.8,0.3,1.2c0.2,0.3,0.5,0.5,0.8,0.5h4V26c0,0.4,0.2,0.6,0.5,0.9
			c0.3,0.2,0.8,0.3,1.2,0.3c0.5,0,0.9-0.1,1.2-0.3c0.4-0.2,0.5-0.5,0.5-0.9V9.7h4C116,9.7,116.3,9.6,116.5,9.2z M125.1,7.6
			c-0.1-0.4-0.4-0.7-0.8-0.9c-0.4-0.2-0.9-0.3-1.5-0.3c-0.5,0-1,0.1-1.4,0.3c-0.4,0.2-0.7,0.5-0.8,0.8l-5.2,17.8
			c0,0.2-0.1,0.3-0.1,0.3c0,0.5,0.3,0.9,0.8,1.2c0.5,0.3,1.1,0.5,1.7,0.5c0.8,0,1.2-0.2,1.3-0.7l1-3.8h5.8l1,3.8
			c0.1,0.5,0.5,0.7,1.2,0.7c0.5,0,1-0.2,1.5-0.5c0.5-0.3,0.7-0.7,0.7-1.1c0,0,0-0.1-0.1-0.3L125.1,7.6z M120.9,19.8l2.3-8.7l2.4,8.7
			H120.9z M145.6,24.9l-3.5-6.9c1.1-0.3,1.9-1,2.6-1.9c0.6-0.9,1-2.2,1-3.7c0-3.9-2.1-5.9-6.4-5.9h-5.4c-0.3,0-0.6,0.1-0.8,0.3
			c-0.2,0.2-0.3,0.5-0.3,0.8V26c0,0.4,0.2,0.6,0.5,0.8c0.4,0.2,0.8,0.3,1.2,0.3c0.5,0,0.9-0.1,1.2-0.3c0.3-0.2,0.5-0.5,0.5-0.8v-7.4
			h2.3l3.8,7.8c0.3,0.6,0.7,0.9,1.2,0.9c0.5,0,1-0.2,1.5-0.6c0.5-0.4,0.7-0.8,0.7-1.3C145.8,25.2,145.7,25,145.6,24.9z M139.2,15.7
			h-3v-6h3c1.9,0,2.9,1,2.9,3C142.1,14.7,141.1,15.7,139.2,15.7z M26.4,6.7h-3.2L17,15.5l-6.2-8.8H7.6c-0.6,0-1,0.5-1,1.1v18.4
			c0,0.6,0.5,1.1,1,1.1h1.6c0.6,0,1-0.5,1-1.1V13.4c0-0.6,0.3-0.7,0.6-0.2l5.1,7.2c0.3,0.5,0.8,0.5,1,0.5c0.2,0,0.7-0.1,1-0.5
			l5.2-7.2c0.3-0.5,0.6-0.4,0.6,0.2v12.8c0,0.6,0.5,1.1,1,1.1h1.6c0.6,0,1-0.5,1-1.1V7.7C27.5,7.1,27,6.7,26.4,6.7z"/>
	</g>
</g>
<path class="st0" d="M34,33H0V0h12.6L17,6.2L21.4,0H34V33z M2,31h30V2H22l-5,6.9L12,2H2V31z"/>
</svg>
